<svg width="40" height="41" viewBox="0 0 40 41" fill="none" xmlns="http://www.w3.org/2000/svg">
<g id="building 1">
<path id="Vector" d="M17.3063 28.6125H22.7C23.0375 28.6125 23.3063 28.3437 23.3063 28.0062V21.55C23.3063 21.2125 23.0375 20.9437 22.7 20.9437H17.3063C16.9688 20.9437 16.7 21.2125 16.7 21.55V28.0062C16.7 28.3375 16.9688 28.6125 17.3063 28.6125ZM20.6063 22.1562H22.0875V24.1687H20.6063V22.1562ZM20.6063 25.3812H22.0875V27.3937H20.6063V25.3812ZM17.9125 22.1562H19.3938V24.1687H17.9125V22.1562ZM17.9125 25.3812H19.3938V27.3937H17.9125V25.3812Z" fill="#0D493D"/>
<path id="Vector_2" d="M39.3937 30.8375H38.575V29.0875C38.575 28.75 38.3063 28.4812 37.9688 28.4812H37.7313V19.4375H38.15C38.3625 19.4375 38.5625 19.325 38.6688 19.1437C38.7237 19.0551 38.7544 18.9536 38.7577 18.8494C38.761 18.7451 38.7368 18.6419 38.6875 18.55L35.8937 13.2687C35.8422 13.1708 35.7649 13.0888 35.6702 13.0315C35.5754 12.9743 35.4669 12.9439 35.3563 12.9437H31.875L30.425 9.32498C30.3803 9.21231 30.3028 9.1157 30.2025 9.0477C30.1022 8.97971 29.9837 8.94348 29.8625 8.94373H10.1312C9.88125 8.94373 9.6625 9.09373 9.56875 9.32498L8.125 12.9375H4.63125C4.40625 12.9375 4.2 13.0625 4.09375 13.2625L1.3125 18.55C1.2125 18.7375 1.21875 18.9625 1.33125 19.1437C1.44375 19.325 1.6375 19.4375 1.85 19.4375H2.26875V28.4812H2.03125C1.69375 28.4812 1.425 28.75 1.425 29.0875V30.8375H0.60625C0.26875 30.8375 0 31.1062 0 31.4437C0 31.7812 0.26875 32.05 0.60625 32.05H39.3937C39.7313 32.05 40 31.7812 40 31.4437C40 31.1062 39.7313 30.8375 39.3937 30.8375ZM31.4688 14.1625H34.9938L37.1437 18.2312H26.2625L22.5625 14.1625H31.4688ZM36.5187 19.4375V28.4812H35.35V19.4375H36.5187ZM29.7812 19.4375V28.4812H28.6125V19.4375H29.7812ZM10.5375 10.1625H29.45L30.5688 12.9437H21.4688L20.45 11.825C20.2188 11.575 19.7812 11.575 19.55 11.825L18.5312 12.9437H9.425L10.5375 10.1625ZM5 14.1625H17.4312L13.7312 18.2312H2.85L5 14.1625ZM11.3875 19.4375V28.4812H10.2188V19.4375H11.3875ZM4.65 19.4375V28.4812H3.48125V19.4375H4.65ZM5.49375 30.8375H2.6375V29.6937H5.49375V30.8375ZM9.00625 28.4812H8.76875C8.43125 28.4812 8.1625 28.75 8.1625 29.0875V30.8375H6.70625V29.0875C6.70625 28.75 6.4375 28.4812 6.1 28.4812H5.85625V19.4375H9.00625V28.4812ZM12.2312 30.8375H9.375V29.6937H12.2312V30.8375ZM14.5312 30.8375H13.4438V29.0875C13.4438 28.75 13.175 28.4812 12.8375 28.4812H12.6V19.4375H14.5312V30.8375ZM24.2563 30.8375H15.7438V19.4375H24.25V30.8375H24.2563ZM15.375 18.2312L20 13.1375L20.7625 13.975L20.775 13.9875L24.6313 18.2312H15.375ZM27.4 28.4812H27.1625C26.825 28.4812 26.5563 28.75 26.5563 29.0875V30.8375H25.4688V19.4375H27.4V28.4812ZM30.625 30.8375H27.7687V29.6937H30.625V30.8375ZM34.1437 28.4812H33.9062C33.5687 28.4812 33.3 28.75 33.3 29.0875V30.8375H31.8438V29.0875C31.8438 28.75 31.575 28.4812 31.2375 28.4812H31V19.4375H34.15V28.4812H34.1437ZM37.3625 30.8375H34.5062V29.6937H37.3625V30.8375Z" fill="#0D493D"/>
</g>
</svg>
