<svg width="100" height="100" viewBox="0 0 100 100" fill="none" xmlns="http://www.w3.org/2000/svg">
<path d="M49.9996 58.5938C56.1171 58.5854 62.0197 56.3373 66.5927 52.2738C71.1656 48.2104 74.0923 42.6131 74.8199 36.5391C75.5723 33.9719 79.9269 17.3117 68.9605 9.35391C65.5552 6.72134 61.4416 5.16532 57.1465 4.88516C57.3652 4.44696 57.4778 3.96351 57.4753 3.47378C57.4728 2.98405 57.3553 2.50177 57.1321 2.06582C56.909 1.62988 56.5865 1.25249 56.1907 0.964077C55.7949 0.675668 55.3368 0.484321 54.8535 0.405469C53.2581 0.14154 51.6441 0.00594895 50.0269 0C39.4277 0 34.4293 6.16406 32.6754 9.03906C24.8816 11.7266 22.1316 21.4664 25.1254 36.1C25.754 42.2624 28.6449 47.9728 33.2393 52.1275C37.8337 56.2822 43.8053 58.5861 49.9996 58.5938ZM29.9605 38.5687C34.2082 35.8492 35.7996 30.818 36.3793 26.9375C38.1964 27.6229 40.1208 27.98 42.0629 27.9922C44.9099 27.9871 47.699 27.1873 50.116 25.6828C52.4423 27.1456 55.1314 27.9282 57.8793 27.9422C59.7547 27.9375 61.6128 27.5819 63.3574 26.8937C64.0879 30.768 65.8433 35.8727 70.0527 38.568C70.3983 38.7875 70.7838 38.9367 71.1871 39.007C69.9861 43.7146 67.2516 47.8881 63.4152 50.8689C59.5787 53.8497 54.8588 55.4679 50.0005 55.4682C45.1422 55.4684 40.4221 53.8507 36.5853 50.8704C32.7485 47.89 30.0136 43.7168 28.8121 39.0094C29.2204 38.9403 29.6108 38.7905 29.9605 38.5687Z" fill="#F6FFFD"/>
<path d="M72.6562 53.9062H69.4219C69.1229 54.1922 68.8177 54.4716 68.5063 54.7445L68.4906 54.7578C68.1859 55.0245 67.8758 55.2849 67.5602 55.5391L67.4992 55.5867C67.194 55.8305 66.8841 56.068 66.5695 56.2992C66.5383 56.3227 66.507 56.3438 66.4758 56.3664C66.1633 56.593 65.8461 56.8164 65.5227 57.0305H70.1016C69.1516 61.0813 65.2242 75.832 55.8 89.0789L54.2641 76.1281L55.7516 74.775L56.3547 76.3414C56.4489 76.5863 56.6032 76.8036 56.8035 76.9732C57.0038 77.1427 57.2436 77.2591 57.5007 77.3116C57.7578 77.364 58.024 77.3509 58.2747 77.2734C58.5254 77.1958 58.7525 77.0564 58.9352 76.868C62.6891 72.993 67.7633 64.7836 64.9766 57.382C64.0835 57.9491 63.1591 58.4653 62.2078 58.9281L61.6437 59.1852C60.1723 59.8598 58.6449 60.4051 57.0789 60.8148C56.2021 61.8327 55.1161 62.6496 53.8951 63.2099C52.674 63.7702 51.3466 64.0607 50.0031 64.0617H49.9969C48.654 64.0613 47.327 63.7711 46.1065 63.2109C44.886 62.6506 43.8008 61.8336 42.925 60.8156C40.3729 60.1503 37.9279 59.1271 35.6625 57.7766C33.1977 65.0734 38.1594 73.0617 41.8469 76.868C42.0295 77.0562 42.2566 77.1955 42.5072 77.2729C42.7578 77.3503 43.0239 77.3634 43.2809 77.311C43.5379 77.2585 43.7775 77.1422 43.9778 76.9728C44.178 76.8033 44.3323 76.5862 44.4266 76.3414L44.8266 75.3008L45.7359 76.1273L44.1984 89.0961C34.6789 75.7766 30.8195 61.0609 29.893 57.0312H34.4766C34.1543 56.8162 33.8366 56.5945 33.5234 56.3664L33.4297 56.2992C33.1146 56.0685 32.8047 55.831 32.5 55.5867L32.4398 55.5398C32.1237 55.2857 31.8133 55.0253 31.5086 54.7586L31.493 54.7445C31.182 54.4721 30.8771 54.1927 30.5781 53.9062H27.3438C21.7512 53.9125 16.3896 56.1368 12.4351 60.0913C8.48057 64.0458 6.2562 69.4075 6.25 75V98.4375C6.25 98.8519 6.41462 99.2493 6.70765 99.5424C7.00067 99.8354 7.3981 100 7.8125 100H92.1875C92.6019 100 92.9993 99.8354 93.2924 99.5424C93.5854 99.2493 93.75 98.8519 93.75 98.4375V75C93.7438 69.4075 91.5194 64.0458 87.5649 60.0913C83.6104 56.1368 78.2488 53.9125 72.6562 53.9062ZM47.9477 67.1875H52.7344L54.2969 71.875L50 75.7812L46.0305 72.1719L47.9477 67.1875ZM50 96.1875C48.9321 95.0492 47.9054 93.8729 46.9219 92.6609L48.5945 78.5578C49.0277 78.7864 49.5102 78.9059 50 78.9059C50.4898 78.9059 50.9723 78.7864 51.4055 78.5578L53.0766 92.6539C52.0942 93.869 51.068 95.0471 50 96.1875Z" fill="#F6FFFD"/>
</svg>
