<svg width="103" height="103" viewBox="0 0 103 103" fill="none" xmlns="http://www.w3.org/2000/svg">
<g id="Group 23">
<g id="Group">
<path id="Vector" d="M98 73.5263V39.2632H5V93.1053C5 95.8086 7.19145 98 9.89474 98H51.5" stroke="black" stroke-width="9.78947" stroke-linecap="round" stroke-linejoin="round"/>
<path id="Vector_2" d="M5 17.2369C5 14.5336 7.19145 12.3421 9.89474 12.3421H93.1053C95.8086 12.3421 98 14.5336 98 17.2369V39.2632H5V17.2369Z" stroke="black" stroke-width="9.78947" stroke-linejoin="round"/>
<path id="Vector_3" d="M31.9209 5V24.5789" stroke="black" stroke-width="9.78947" stroke-linecap="round"/>
<path id="Vector_4" d="M71.0791 5V24.5789" stroke="black" stroke-width="9.78947" stroke-linecap="round"/>
<path id="Vector_5" d="M66.1843 88.2105C75.6458 88.2105 83.3159 80.5404 83.3159 71.0789C83.3159 61.6174 75.6458 53.9474 66.1843 53.9474C56.7228 53.9474 49.0527 61.6174 49.0527 71.0789C49.0527 80.5404 56.7228 88.2105 66.1843 88.2105Z" fill="#FF7A00" stroke="black" stroke-width="9.78947"/>
<path id="Vector_6" d="M80.8682 83.3158L95.5524 95.5526" stroke="black" stroke-width="9.78947" stroke-linecap="round" stroke-linejoin="round"/>
</g>
</g>
</svg>
