<svg width="41" height="41" viewBox="0 0 41 41" fill="none" xmlns="http://www.w3.org/2000/svg">
<g clip-path="url(#clip0_1345_507)">
<path d="M40.5005 19.2499C40.5005 19.0841 40.4346 18.9251 40.3174 18.8079C40.2002 18.6907 40.0412 18.6249 39.8755 18.6249H29.1655L28.7708 16.7499H39.8755C40.0412 16.7499 40.2002 16.684 40.3174 16.5668C40.4346 16.4496 40.5005 16.2906 40.5005 16.1249C40.5005 15.9591 40.4346 15.8001 40.3174 15.6829C40.2002 15.5657 40.0412 15.4999 39.8755 15.4999H27.063V16.7499H27.4933L32.3889 40.0036C32.4051 40.0846 32.4372 40.1616 32.4833 40.2301C32.5295 40.2986 32.5888 40.3573 32.6577 40.4028C32.7267 40.4483 32.804 40.4796 32.8851 40.495C32.9663 40.5105 33.0497 40.5096 33.1305 40.4926C33.2114 40.4756 33.288 40.4427 33.3561 40.3959C33.4241 40.3491 33.4822 40.2892 33.527 40.2198C33.5718 40.1504 33.6023 40.0728 33.6169 39.9915C33.6315 39.9102 33.6299 39.8268 33.612 39.7461L33.3755 38.6249H39.8755C40.0412 38.6249 40.2002 38.559 40.3174 38.4418C40.4346 38.3246 40.5005 38.1656 40.5005 37.9999C40.5005 37.8341 40.4346 37.6751 40.3174 37.5579C40.2002 37.4407 40.0412 37.3749 39.8755 37.3749H33.113L32.7183 35.4999H39.8755C40.0412 35.4999 40.2002 35.434 40.3174 35.3168C40.4346 35.1996 40.5005 35.0406 40.5005 34.8749C40.5005 34.7091 40.4346 34.5501 40.3174 34.4329C40.2002 34.3157 40.0412 34.2499 39.8755 34.2499H32.4548L32.0602 32.3749H39.8755C40.0412 32.3749 40.2002 32.309 40.3174 32.1918C40.4346 32.0746 40.5005 31.9156 40.5005 31.7499C40.5005 31.5841 40.4346 31.4251 40.3174 31.3079C40.2002 31.1907 40.0412 31.1249 39.8755 31.1249H31.797L31.4023 29.2499H39.8755C40.0412 29.2499 40.2002 29.184 40.3174 29.0668C40.4346 28.9496 40.5005 28.7906 40.5005 28.6249C40.5005 28.4591 40.4346 28.3001 40.3174 28.1829C40.2002 28.0657 40.0412 27.9999 39.8755 27.9999H31.1392L30.7445 26.1249H39.8755C40.0412 26.1249 40.2002 26.059 40.3174 25.9418C40.4346 25.8246 40.5005 25.6656 40.5005 25.4999C40.5005 25.3341 40.4346 25.1751 40.3174 25.0579C40.2002 24.9407 40.0412 24.8749 39.8755 24.8749H30.4814L30.0867 22.9999H39.8755C40.0412 22.9999 40.2002 22.934 40.3174 22.8168C40.4346 22.6996 40.5005 22.5406 40.5005 22.3749C40.5005 22.2091 40.4346 22.0501 40.3174 21.9329C40.2002 21.8157 40.0412 21.7499 39.8755 21.7499H29.8233L29.4286 19.8749H39.8755C40.0412 19.8749 40.2002 19.809 40.3174 19.6918C40.4346 19.5746 40.5005 19.4156 40.5005 19.2499ZM7.06297 11.3805C7.50568 11.5984 7.98766 11.7252 8.48031 11.7533C8.97295 11.7813 9.46622 11.7101 9.93081 11.5438C10.3954 11.3776 10.8218 11.1197 11.1848 10.7854C11.5478 10.4511 11.8399 10.0473 12.0438 9.59795C12.2477 9.1486 12.3592 8.66286 12.3717 8.16957C12.3842 7.67629 12.2975 7.18551 12.1167 6.7264C11.9359 6.26728 11.6646 5.84917 11.3191 5.49691C10.9735 5.14466 10.5607 4.86542 10.1052 4.6758C10.1758 4.15274 10.1337 3.62063 9.98175 3.11518C9.8298 2.60973 9.57148 2.14263 9.22413 1.74523C8.87679 1.34783 8.44846 1.02933 7.96788 0.811107C7.48731 0.592882 6.96562 0.47998 6.43782 0.47998C5.91002 0.47998 5.38832 0.592882 4.90775 0.811107C4.42717 1.02933 3.99884 1.34783 3.6515 1.74523C3.30415 2.14263 3.04583 2.60973 2.89388 3.11518C2.74192 3.62063 2.69985 4.15274 2.77047 4.6758C1.98252 5.002 1.33246 5.59195 0.931573 6.34466C0.530691 7.09737 0.403921 7.96602 0.572966 8.8019C0.742011 9.63779 1.19636 10.3889 1.85822 10.9267C2.52009 11.4645 3.34831 11.7555 4.2011 11.7499C4.75944 11.7505 5.31062 11.6242 5.81297 11.3805V15.4999H1.12547C0.959712 15.4999 0.800741 15.5657 0.683531 15.6829C0.56632 15.8001 0.500472 15.9591 0.500472 16.1249C0.500472 16.2906 0.56632 16.4496 0.683531 16.5668C0.800741 16.684 0.959712 16.7499 1.12547 16.7499H12.2302L11.8355 18.6249H1.12547C0.959712 18.6249 0.800741 18.6907 0.683531 18.8079C0.56632 18.9251 0.500472 19.0841 0.500472 19.2499C0.500472 19.4156 0.56632 19.5746 0.683531 19.6918C0.800741 19.809 0.959712 19.8749 1.12547 19.8749H11.5723L11.1777 21.7499H1.12547C0.959712 21.7499 0.800741 21.8157 0.683531 21.9329C0.56632 22.0501 0.500472 22.2091 0.500472 22.3749C0.500472 22.5406 0.56632 22.6996 0.683531 22.8168C0.800741 22.934 0.959712 22.9999 1.12547 22.9999H10.9145L10.5198 24.8749H1.12547C0.959712 24.8749 0.800741 24.9407 0.683531 25.0579C0.56632 25.1751 0.500472 25.3341 0.500472 25.4999C0.500472 25.6656 0.56632 25.8246 0.683531 25.9418C0.800741 26.059 0.959712 26.1249 1.12547 26.1249H10.2564L9.86172 27.9999H1.12547C0.959712 27.9999 0.800741 28.0657 0.683531 28.1829C0.56632 28.3001 0.500472 28.4591 0.500472 28.6249C0.500472 28.7906 0.56632 28.9496 0.683531 29.0668C0.800741 29.184 0.959712 29.2499 1.12547 29.2499H9.5986L9.20391 31.1249H1.12547C0.959712 31.1249 0.800741 31.1907 0.683531 31.3079C0.56632 31.4251 0.500472 31.5841 0.500472 31.7499C0.500472 31.9156 0.56632 32.0746 0.683531 32.1918C0.800741 32.309 0.959712 32.3749 1.12547 32.3749H8.94078L8.5461 34.2499H1.12547C0.959712 34.2499 0.800741 34.3157 0.683531 34.4329C0.56632 34.5501 0.500472 34.7091 0.500472 34.8749C0.500472 35.0406 0.56632 35.1996 0.683531 35.3168C0.800741 35.434 0.959712 35.4999 1.12547 35.4999H8.28172L7.88703 37.3749H1.12547C0.959712 37.3749 0.800741 37.4407 0.683531 37.5579C0.56632 37.6751 0.500472 37.8341 0.500472 37.9999C0.500472 38.1656 0.56632 38.3246 0.683531 38.4418C0.800741 38.559 0.959712 38.6249 1.12547 38.6249H7.62547L7.38953 39.7461C7.3717 39.8268 7.37004 39.9102 7.38463 39.9915C7.39923 40.0728 7.4298 40.1504 7.47458 40.2198C7.51935 40.2892 7.57745 40.3491 7.6455 40.3959C7.71355 40.4427 7.79021 40.4756 7.87104 40.4926C7.95188 40.5096 8.03528 40.5105 8.11644 40.495C8.19759 40.4796 8.27489 40.4483 8.34385 40.4028C8.41282 40.3573 8.47208 40.2986 8.51822 40.2301C8.56436 40.1616 8.59646 40.0846 8.61266 40.0036L13.5077 16.7499H16.0561L13.6289 39.8095C13.6202 39.8912 13.6278 39.9738 13.651 40.0526C13.6743 40.1313 13.7129 40.2047 13.7645 40.2686C13.8162 40.3324 13.8799 40.3855 13.9521 40.4247C14.0243 40.4639 14.1035 40.4885 14.1852 40.497C14.2073 40.4992 14.2295 40.5005 14.2514 40.5005C14.4058 40.5003 14.5546 40.4431 14.6692 40.3397C14.7839 40.2364 14.8562 40.0943 14.8723 39.9408L17.313 16.7499H19.8755V39.8749C19.8755 40.0406 19.9413 40.1996 20.0585 40.3168C20.1757 40.434 20.3347 40.4999 20.5005 40.4999C20.6662 40.4999 20.8252 40.434 20.9424 40.3168C21.0596 40.1996 21.1255 40.0406 21.1255 39.8749V16.7499H23.313V15.4999H7.06297V11.3805ZM6.43797 9.53673C6.35311 9.53675 6.26914 9.55405 6.19119 9.58758C6.11323 9.6211 6.04292 9.67015 5.98453 9.73174C5.64868 10.0872 5.21419 10.3342 4.73691 10.4408C4.25962 10.5475 3.76135 10.5089 3.30613 10.3302C2.85091 10.1514 2.45955 9.84066 2.18233 9.43776C1.90512 9.03486 1.75472 8.55827 1.75047 8.06923C1.75028 7.51859 1.93774 6.98431 2.28194 6.5545C2.62614 6.12469 3.10653 5.82501 3.64391 5.70486C3.7281 5.68548 3.80736 5.64885 3.87669 5.59729C3.94601 5.54573 4.00389 5.48036 4.04668 5.4053C4.08946 5.33025 4.11622 5.24713 4.12527 5.16121C4.13431 5.07529 4.12544 4.98843 4.09922 4.90611C4.025 4.67085 3.98727 4.42561 3.98735 4.17892C3.99463 3.53373 4.25605 2.91743 4.71487 2.46377C5.17369 2.0101 5.79289 1.75566 6.43813 1.75566C7.08336 1.75566 7.70257 2.0101 8.16139 2.46377C8.62021 2.91743 8.88162 3.53373 8.88891 4.17892C8.88898 4.42561 8.85125 4.67085 8.77703 4.90611C8.75107 4.98833 8.74239 5.07504 8.75156 5.16078C8.76073 5.24652 8.78754 5.32943 8.8303 5.40431C8.87307 5.47918 8.93086 5.5444 9.00005 5.59585C9.06924 5.64731 9.14833 5.68389 9.23235 5.7033C9.60083 5.79168 9.94355 5.96498 10.2332 6.20935C10.5228 6.45372 10.7512 6.76241 10.9004 7.11077C11.0495 7.45913 11.1151 7.83752 11.092 8.21575C11.0689 8.59398 10.9577 8.96157 10.7673 9.28918C10.5768 9.6168 10.3125 9.89537 9.99529 10.1027C9.67808 10.31 9.31682 10.4403 8.94032 10.4831C8.56382 10.526 8.18251 10.4803 7.82682 10.3496C7.47113 10.2189 7.15092 10.0069 6.89172 9.73048C6.83317 9.66915 6.76274 9.62036 6.68474 9.58711C6.60673 9.55385 6.52277 9.53682 6.43797 9.53705V9.53673ZM25.8211 25.0755C25.4151 25.2239 24.9698 25.2251 24.563 25.0789L26.1273 39.9402C26.1435 40.094 26.2162 40.2365 26.3313 40.3398C26.4464 40.4432 26.5958 40.5002 26.7505 40.4999C26.772 40.4999 26.7945 40.4999 26.8164 40.4964C26.8981 40.4878 26.9773 40.4633 27.0495 40.4241C27.1216 40.3848 27.1854 40.3318 27.237 40.268C27.2887 40.2041 27.3273 40.1307 27.3505 40.0519C27.3738 39.9732 27.3813 39.8906 27.3727 39.8089L25.8211 25.0755Z" fill="#0D493D"/>
<path d="M25.1875 23.9375C25.3533 23.9375 25.5122 23.8717 25.6294 23.7544C25.7467 23.6372 25.8125 23.4783 25.8125 23.3125V11.75H33.3125C33.4783 11.75 33.6372 11.6842 33.7544 11.5669C33.8717 11.4497 33.9375 11.2908 33.9375 11.125V1.125C33.9375 0.95924 33.8717 0.800269 33.7544 0.683058C33.6372 0.565848 33.4783 0.5 33.3125 0.5H17.0625C16.8967 0.5 16.7378 0.565848 16.6206 0.683058C16.5033 0.800269 16.4375 0.95924 16.4375 1.125V11.125C16.4375 11.2908 16.5033 11.4497 16.6206 11.5669C16.7378 11.6842 16.8967 11.75 17.0625 11.75H24.5625V23.3125C24.5625 23.4783 24.6283 23.6372 24.7456 23.7544C24.8628 23.8717 25.0217 23.9375 25.1875 23.9375ZM17.6875 10.5V1.75H32.6875V10.5H17.6875Z" fill="#0D493D"/>
<path d="M19.5625 3.9375C19.9077 3.9375 20.1875 3.65768 20.1875 3.3125C20.1875 2.96732 19.9077 2.6875 19.5625 2.6875C19.2173 2.6875 18.9375 2.96732 18.9375 3.3125C18.9375 3.65768 19.2173 3.9375 19.5625 3.9375Z" fill="#0D493D"/>
<path d="M30.8125 3.9375C31.1577 3.9375 31.4375 3.65768 31.4375 3.3125C31.4375 2.96732 31.1577 2.6875 30.8125 2.6875C30.4673 2.6875 30.1875 2.96732 30.1875 3.3125C30.1875 3.65768 30.4673 3.9375 30.8125 3.9375Z" fill="#0D493D"/>
<path d="M30.8125 9.5625C31.1577 9.5625 31.4375 9.28268 31.4375 8.9375C31.4375 8.59232 31.1577 8.3125 30.8125 8.3125C30.4673 8.3125 30.1875 8.59232 30.1875 8.9375C30.1875 9.28268 30.4673 9.5625 30.8125 9.5625Z" fill="#0D493D"/>
<path d="M19.5625 9.5625C19.9077 9.5625 20.1875 9.28268 20.1875 8.9375C20.1875 8.59232 19.9077 8.3125 19.5625 8.3125C19.2173 8.3125 18.9375 8.59232 18.9375 8.9375C18.9375 9.28268 19.2173 9.5625 19.5625 9.5625Z" fill="#0D493D"/>
<path d="M27.0625 6.75H23.3125C23.1467 6.75 22.9878 6.81585 22.8706 6.93306C22.7533 7.05027 22.6875 7.20924 22.6875 7.375C22.6875 7.54076 22.7533 7.69973 22.8706 7.81694C22.9878 7.93415 23.1467 8 23.3125 8H27.0625C27.2283 8 27.3872 7.93415 27.5044 7.81694C27.6217 7.69973 27.6875 7.54076 27.6875 7.375C27.6875 7.20924 27.6217 7.05027 27.5044 6.93306C27.3872 6.81585 27.2283 6.75 27.0625 6.75ZM28 4.25H22.375C22.2092 4.25 22.0503 4.31585 21.9331 4.43306C21.8158 4.55027 21.75 4.70924 21.75 4.875C21.75 5.04076 21.8158 5.19973 21.9331 5.31694C22.0503 5.43415 22.2092 5.5 22.375 5.5H28C28.1658 5.5 28.3247 5.43415 28.4419 5.31694C28.5592 5.19973 28.625 5.04076 28.625 4.875C28.625 4.70924 28.5592 4.55027 28.4419 4.43306C28.3247 4.31585 28.1658 4.25 28 4.25Z" fill="#0D493D"/>
</g>
<defs>
<clipPath id="clip0_1345_507">
<rect width="40" height="40" fill="white" transform="translate(0.5 0.5)"/>
</clipPath>
</defs>
</svg>
