<svg width="40" height="41" viewBox="0 0 40 41" fill="none" xmlns="http://www.w3.org/2000/svg">
<g id="news 1" clip-path="url(#clip0_47_506)">
<path id="Vector" d="M38.125 3.9375H1.875C1.37789 3.93804 0.901287 4.13576 0.549774 4.48727C0.198261 4.83879 0.000542622 5.31539 0 5.8125L0 32.6875C0.000542622 33.1846 0.198261 33.6612 0.549774 34.0127C0.901287 34.3642 1.37789 34.562 1.875 34.5625H14.375V35.8125H10C9.83424 35.8125 9.67527 35.8783 9.55806 35.9956C9.44085 36.1128 9.375 36.2717 9.375 36.4375C9.375 36.6033 9.44085 36.7622 9.55806 36.8794C9.67527 36.9967 9.83424 37.0625 10 37.0625H30C30.1658 37.0625 30.3247 36.9967 30.4419 36.8794C30.5592 36.7622 30.625 36.6033 30.625 36.4375C30.625 36.2717 30.5592 36.1128 30.4419 35.9956C30.3247 35.8783 30.1658 35.8125 30 35.8125H25.625V34.5625H38.125C38.6221 34.562 39.0987 34.3642 39.4502 34.0127C39.8017 33.6612 39.9995 33.1846 40 32.6875V5.8125C39.9995 5.31539 39.8017 4.83879 39.4502 4.48727C39.0987 4.13576 38.6221 3.93804 38.125 3.9375ZM24.375 35.8125H15.625V34.5625H24.375V35.8125ZM38.75 32.6875C38.7498 32.8532 38.6839 33.0121 38.5667 33.1292C38.4496 33.2464 38.2907 33.3123 38.125 33.3125H1.875C1.7093 33.3123 1.55044 33.2464 1.43327 33.1292C1.3161 33.0121 1.25019 32.8532 1.25 32.6875V32.0625H38.75V32.6875ZM38.75 30.8125H1.25V5.8125C1.25019 5.6468 1.3161 5.48794 1.43327 5.37077C1.55044 5.2536 1.7093 5.18769 1.875 5.1875H38.125C38.2907 5.18769 38.4496 5.2536 38.5667 5.37077C38.6839 5.48794 38.7498 5.6468 38.75 5.8125V30.8125Z" fill="#0D493D"/>
<path id="Vector_2" d="M36.875 6.4375H3.125C2.95924 6.43751 2.80028 6.50336 2.68307 6.62057C2.56586 6.73778 2.50001 6.89674 2.5 7.0625V28.9375C2.50001 29.1033 2.56586 29.2622 2.68307 29.3794C2.80028 29.4966 2.95924 29.5625 3.125 29.5625H36.875C37.0408 29.5625 37.1997 29.4966 37.3169 29.3794C37.4341 29.2622 37.5 29.1033 37.5 28.9375V7.0625C37.5 6.89674 37.4341 6.73778 37.3169 6.62057C37.1997 6.50336 37.0408 6.43751 36.875 6.4375ZM36.25 28.3125H3.75V7.6875H36.25V28.3125Z" fill="#0D493D"/>
<path id="Vector_3" d="M7.1875 16.75H32.8125C32.9783 16.75 33.1372 16.6842 33.2544 16.567C33.3717 16.4498 33.4375 16.2908 33.4375 16.125C33.4375 15.9593 33.3717 15.8003 33.2544 15.6831C33.1372 15.5659 32.9783 15.5 32.8125 15.5H7.1875C7.02174 15.5 6.86277 15.5659 6.74556 15.6831C6.62835 15.8003 6.5625 15.9593 6.5625 16.125C6.5625 16.2908 6.62835 16.4498 6.74556 16.567C6.86277 16.6842 7.02174 16.75 7.1875 16.75ZM10 18C9.83424 18 9.67527 18.0659 9.55806 18.1831C9.44085 18.3003 9.375 18.4593 9.375 18.625C9.375 18.7908 9.44085 18.9498 9.55806 19.067C9.67527 19.1842 9.83424 19.25 10 19.25H17.2656C17.4314 19.25 17.5904 19.1842 17.7076 19.067C17.8248 18.9498 17.8906 18.7908 17.8906 18.625C17.8906 18.4593 17.8248 18.3003 17.7076 18.1831C17.5904 18.0659 17.4314 18 17.2656 18H10ZM7.1875 21.75H17.2656C17.4314 21.75 17.5904 21.6842 17.7076 21.567C17.8248 21.4498 17.8906 21.2908 17.8906 21.125C17.8906 20.9593 17.8248 20.8003 17.7076 20.6831C17.5904 20.5659 17.4314 20.5 17.2656 20.5H7.1875C7.02174 20.5 6.86277 20.5659 6.74556 20.6831C6.62835 20.8003 6.5625 20.9593 6.5625 21.125C6.5625 21.2908 6.62835 21.4498 6.74556 21.567C6.86277 21.6842 7.02174 21.75 7.1875 21.75ZM7.1875 24.25H17.2656C17.4314 24.25 17.5904 24.1842 17.7076 24.067C17.8248 23.9498 17.8906 23.7908 17.8906 23.625C17.8906 23.4593 17.8248 23.3003 17.7076 23.1831C17.5904 23.0659 17.4314 23 17.2656 23H7.1875C7.02174 23 6.86277 23.0659 6.74556 23.1831C6.62835 23.3003 6.5625 23.4593 6.5625 23.625C6.5625 23.7908 6.62835 23.9498 6.74556 24.067C6.86277 24.1842 7.02174 24.25 7.1875 24.25ZM32.8906 23H29.0625C28.8967 23 28.7378 23.0659 28.6206 23.1831C28.5033 23.3003 28.4375 23.4593 28.4375 23.625C28.4375 23.7908 28.5033 23.9498 28.6206 24.067C28.7378 24.1842 28.8967 24.25 29.0625 24.25H32.8906C33.0564 24.25 33.2154 24.1842 33.3326 24.067C33.4498 23.9498 33.5156 23.7908 33.5156 23.625C33.5156 23.4593 33.4498 23.3003 33.3326 23.1831C33.2154 23.0659 33.0564 23 32.8906 23ZM32.8906 25.5H22.1875C22.0217 25.5 21.8628 25.5659 21.7456 25.6831C21.6283 25.8003 21.5625 25.9593 21.5625 26.125C21.5625 26.2908 21.6283 26.4498 21.7456 26.567C21.8628 26.6842 22.0217 26.75 22.1875 26.75H32.8906C33.0564 26.75 33.2154 26.6842 33.3326 26.567C33.4498 26.4498 33.5156 26.2908 33.5156 26.125C33.5156 25.9593 33.4498 25.8003 33.3326 25.6831C33.2154 25.5659 33.0564 25.5 32.8906 25.5ZM7.1875 26.75H17.2656C17.4314 26.75 17.5904 26.6842 17.7076 26.567C17.8248 26.4498 17.8906 26.2908 17.8906 26.125C17.8906 25.9593 17.8248 25.8003 17.7076 25.6831C17.5904 25.5659 17.4314 25.5 17.2656 25.5H7.1875C7.02174 25.5 6.86277 25.5659 6.74556 25.6831C6.62835 25.8003 6.5625 25.9593 6.5625 26.125C6.5625 26.2908 6.62835 26.4498 6.74556 26.567C6.86277 26.6842 7.02174 26.75 7.1875 26.75ZM10.0204 14.3356C10.1442 14.3392 10.2645 14.2943 10.3556 14.2104C10.4467 14.1266 10.5014 14.0105 10.5081 13.8869V10.7851L13.0319 14.1388C13.0792 14.2004 13.14 14.2502 13.2098 14.2844C13.2795 14.3185 13.3562 14.3361 13.4338 14.3356C13.5576 14.3392 13.6778 14.2943 13.7689 14.2104C13.86 14.1266 13.9148 14.0105 13.9215 13.8869V9.36019C13.9113 9.23786 13.8555 9.12382 13.7652 9.04069C13.6749 8.95756 13.5566 8.91142 13.4338 8.91142C13.3111 8.91142 13.1928 8.95756 13.1025 9.04069C13.0121 9.12382 12.9563 9.23786 12.9462 9.36019V12.4777L10.4141 9.10034C10.3688 9.03927 10.3092 8.99016 10.2406 8.95725C10.172 8.92434 10.0965 8.90862 10.0204 8.91144C9.89673 8.9079 9.77653 8.95284 9.68548 9.03667C9.59443 9.12051 9.53974 9.2366 9.53308 9.36019V13.8869C9.53977 14.0104 9.59446 14.1265 9.6855 14.2104C9.77655 14.2942 9.89674 14.3391 10.0204 14.3356ZM15.4016 14.2726H18.1647C18.2213 14.2773 18.2783 14.2702 18.332 14.2517C18.3857 14.2333 18.435 14.2039 18.4768 14.1654C18.5186 14.1269 18.5519 14.0802 18.5747 14.0282C18.5975 13.9762 18.6093 13.92 18.6093 13.8632C18.6093 13.8064 18.5975 13.7502 18.5747 13.6982C18.5519 13.6462 18.5186 13.5995 18.4768 13.561C18.435 13.5225 18.3857 13.4932 18.332 13.4747C18.2783 13.4563 18.2213 13.4491 18.1647 13.4538H15.8975V12.0053H17.5143C17.5699 12.0099 17.6258 12.003 17.6785 11.9849C17.7312 11.9668 17.7796 11.938 17.8206 11.9003C17.8617 11.8625 17.8944 11.8167 17.9168 11.7657C17.9392 11.7146 17.9508 11.6595 17.9508 11.6038C17.9508 11.548 17.9392 11.4929 17.9168 11.4419C17.8944 11.3908 17.8617 11.345 17.8206 11.3073C17.7796 11.2695 17.7312 11.2407 17.6785 11.2226C17.6258 11.2045 17.5699 11.1976 17.5143 11.2022H15.8975V9.79309H18.0704C18.127 9.7978 18.184 9.79072 18.2377 9.77229C18.2915 9.75386 18.3408 9.72448 18.3827 9.686C18.4245 9.64752 18.4578 9.60079 18.4807 9.54876C18.5035 9.49672 18.5153 9.44052 18.5153 9.38369C18.5153 9.32687 18.5035 9.27066 18.4807 9.21863C18.4578 9.16659 18.4245 9.11986 18.3827 9.08138C18.3408 9.04291 18.2915 9.01352 18.2377 8.99509C18.184 8.97666 18.127 8.96958 18.0704 8.9743H15.4016C15.2753 8.96938 15.1523 9.01467 15.0593 9.10025C14.9663 9.18583 14.911 9.30474 14.9054 9.431V13.8161C14.911 13.9423 14.9663 14.0612 15.0593 14.1467C15.1523 14.2323 15.2754 14.2776 15.4016 14.2726ZM20.5173 14.0207C20.5565 14.1159 20.6236 14.1969 20.7099 14.2531C20.7961 14.3093 20.8974 14.338 21.0003 14.3355C21.1032 14.3329 21.2029 14.2992 21.2862 14.2388C21.3695 14.1783 21.4326 14.094 21.467 13.997L22.4506 10.7693L23.4345 13.997C23.4688 14.094 23.5318 14.1783 23.6151 14.2387C23.6985 14.2992 23.7981 14.3329 23.901 14.3355C24.0039 14.338 24.1051 14.3093 24.1913 14.2531C24.2776 14.1969 24.3447 14.1159 24.3839 14.0207L25.8469 9.50973C25.8643 9.46452 25.873 9.41642 25.8725 9.36798C25.8622 9.2557 25.8144 9.15016 25.7368 9.06832C25.6592 8.98648 25.5564 8.93309 25.4449 8.91674C25.3333 8.90038 25.2195 8.92201 25.1217 8.97814C25.0239 9.03427 24.9478 9.12164 24.9057 9.22622L23.9047 12.5328L22.9297 9.24209C22.8928 9.14488 22.8272 9.06118 22.7416 9.00212C22.6561 8.94306 22.5545 8.91143 22.4506 8.91143C22.3466 8.91143 22.2451 8.94306 22.1595 9.00212C22.0739 9.06118 22.0083 9.14488 21.9714 9.24209L20.9964 12.5328L19.9954 9.22622C19.9533 9.12165 19.8773 9.03427 19.7795 8.97813C19.6817 8.922 19.5679 8.90038 19.4564 8.91674C19.3448 8.9331 19.242 8.98649 19.1645 9.06833C19.087 9.15018 19.0392 9.25571 19.0289 9.36798C19.0284 9.41642 19.0371 9.46452 19.0546 9.50973L20.5173 14.0207ZM28.5163 14.3828C29.9277 14.3828 30.6635 13.7845 30.6635 12.8241C30.6635 10.8559 27.5412 11.3362 27.5412 10.3049C27.5412 9.98993 27.8061 9.68292 28.5163 9.68292C28.952 9.67702 29.376 9.82472 29.7137 10.1001C29.8118 10.1999 29.9424 10.2614 30.0818 10.2733C30.1982 10.2788 30.3121 10.238 30.3986 10.1599C30.4851 10.0817 30.5372 9.97252 30.5435 9.85611C30.5423 9.76522 30.5124 9.67703 30.4581 9.60419C30.116 9.15544 29.3716 8.86414 28.5162 8.86414C27.1561 8.86414 26.5488 9.52545 26.5488 10.3049C26.5488 12.2021 29.671 11.6747 29.671 12.8241C29.671 13.3122 29.2947 13.5483 28.5162 13.5483C27.9887 13.5382 27.4857 13.3237 27.1133 12.95C27.066 12.8967 27.0081 12.8538 26.9433 12.824C26.8786 12.7942 26.8083 12.7781 26.7371 12.7768C26.6206 12.7733 26.5075 12.8161 26.4226 12.8957C26.3376 12.9754 26.2876 13.0855 26.2836 13.2019C26.2841 13.2805 26.3079 13.3572 26.3519 13.4224C26.6855 13.9183 27.4982 14.3828 28.5163 14.3828ZM22.1875 24.25H26.5625C26.7283 24.25 26.8872 24.1842 27.0044 24.067C27.1216 23.9498 27.1875 23.7908 27.1875 23.625V18.625C27.1875 18.4593 27.1216 18.3003 27.0044 18.1831C26.8872 18.0659 26.7283 18 26.5625 18H22.1875C22.0217 18 21.8628 18.0659 21.7456 18.1831C21.6284 18.3003 21.5625 18.4593 21.5625 18.625V23.625C21.5625 23.7908 21.6284 23.9498 21.7456 24.067C21.8628 24.1842 22.0217 24.25 22.1875 24.25ZM22.8125 19.25H25.9375V23H22.8125V19.25ZM29.0625 19.25H32.8125C32.9783 19.25 33.1372 19.1842 33.2544 19.067C33.3717 18.9498 33.4375 18.7908 33.4375 18.625C33.4375 18.4593 33.3717 18.3003 33.2544 18.1831C33.1372 18.0659 32.9783 18 32.8125 18H29.0625C28.8967 18 28.7378 18.0659 28.6206 18.1831C28.5033 18.3003 28.4375 18.4593 28.4375 18.625C28.4375 18.7908 28.5033 18.9498 28.6206 19.067C28.7378 19.1842 28.8967 19.25 29.0625 19.25ZM29.0625 21.75H32.8125C32.9783 21.75 33.1372 21.6842 33.2544 21.567C33.3717 21.4498 33.4375 21.2908 33.4375 21.125C33.4375 20.9593 33.3717 20.8003 33.2544 20.6831C33.1372 20.5659 32.9783 20.5 32.8125 20.5H29.0625C28.8967 20.5 28.7378 20.5659 28.6206 20.6831C28.5033 20.8003 28.4375 20.9593 28.4375 21.125C28.4375 21.2908 28.5033 21.4498 28.6206 21.567C28.7378 21.6842 28.8967 21.75 29.0625 21.75Z" fill="#0D493D"/>
</g>
<defs>
<clipPath id="clip0_47_506">
<rect width="40" height="40" fill="white" transform="translate(0 0.5)"/>
</clipPath>
</defs>
</svg>
