<svg width="100" height="100" viewBox="0 0 100 100" fill="none" xmlns="http://www.w3.org/2000/svg">
<path d="M21.8986 30.9209L27.0621 30.4232C27.3507 30.3954 27.6229 30.2766 27.8395 30.0839C28.0561 29.8913 28.2059 29.6347 28.2672 29.3514C28.8542 26.7123 29.9139 24.2012 31.3951 21.9395C31.5527 21.6953 31.6283 21.4072 31.6111 21.1171C31.5938 20.827 31.4846 20.55 31.2992 20.3262L28.0074 16.3504L32.3375 12.0195L36.3133 15.3127C36.5398 15.5003 36.8208 15.6098 37.1145 15.6251C37.4082 15.6403 37.699 15.5604 37.9438 15.3973C40.1939 13.9084 42.7016 12.8516 45.3387 12.2807C45.6221 12.2194 45.8786 12.0697 46.0714 11.8531C46.2641 11.6364 46.3829 11.3642 46.4107 11.0756L46.9084 5.91191H52.7482L53.2463 11.0744C53.2741 11.363 53.3929 11.6352 53.5856 11.8518C53.7783 12.0685 54.0348 12.2182 54.3182 12.2795C56.9552 12.8505 59.4629 13.9076 61.7129 15.3967C61.9576 15.5598 62.2484 15.6397 62.5421 15.6245C62.8359 15.6093 63.1168 15.4997 63.3434 15.3121L67.3191 12.0195L71.65 16.3504L68.3574 20.3262C68.1721 20.55 68.0629 20.8271 68.0457 21.1172C68.0285 21.4073 68.1042 21.6953 68.2617 21.9395C69.7429 24.2012 70.8026 26.7123 71.3897 29.3514C71.4509 29.6347 71.6007 29.8913 71.8173 30.0839C72.0339 30.2766 72.3062 30.3954 72.5947 30.4232L77.7584 30.9209V32.9619H80.4928V29.6791C80.4928 29.3392 80.3662 29.0115 80.1377 28.7599C79.9092 28.5083 79.5952 28.3508 79.2568 28.3182L73.8287 27.7949C73.2246 25.5165 72.3027 23.3345 71.0902 21.3131L74.5504 17.1354C74.7676 16.8732 74.8791 16.5393 74.8632 16.1993C74.8473 15.8592 74.705 15.5372 74.4643 15.2965L68.3729 9.20527C68.1321 8.96453 67.8102 8.82227 67.4701 8.80634C67.13 8.79041 66.7962 8.90195 66.534 9.11914L62.3649 12.5719C60.3437 11.3546 58.1579 10.4346 55.8746 9.84024L55.3512 4.4127C55.3185 4.07438 55.1611 3.76034 54.9095 3.53184C54.6578 3.30333 54.3301 3.17674 53.9902 3.17676H45.6668C45.3269 3.17674 44.9992 3.30333 44.7476 3.53184C44.496 3.76034 44.3385 4.07438 44.3059 4.4127L43.7828 9.84024C41.4994 10.4347 39.3135 11.3546 37.2922 12.5719L33.123 9.11914C32.8608 8.90198 32.527 8.79047 32.1869 8.80644C31.8468 8.82241 31.5249 8.9647 31.2842 9.20547L25.193 15.2969C24.9522 15.5376 24.81 15.8595 24.794 16.1996C24.7781 16.5397 24.8896 16.8735 25.1068 17.1357L28.5664 21.3135C27.354 23.3349 26.4322 25.5169 25.8281 27.7953L20.4002 28.3186C20.0618 28.3511 19.7478 28.5086 19.5192 28.7602C19.2907 29.0118 19.1641 29.3396 19.1641 29.6795V33.0643H21.8984L21.8986 30.9209ZM49.9996 41.6555C47.9727 41.6578 46.0295 42.464 44.5963 43.8972C43.163 45.3305 42.3568 47.2737 42.3545 49.3006V52.9057C42.3545 54.9333 43.16 56.8778 44.5937 58.3116C46.0274 59.7453 47.972 60.5508 49.9996 60.5508C52.0272 60.5508 53.9718 59.7453 55.4055 58.3116C56.8393 56.8778 57.6447 54.9333 57.6447 52.9057V49.3006C57.6425 47.2737 56.8363 45.3304 55.403 43.8972C53.9698 42.4639 52.0265 41.6577 49.9996 41.6555Z" fill="#F6FFFD"/>
<path d="M65.9613 33.9969C65.9606 31.2855 65.2714 28.6187 63.9585 26.2463C62.6455 23.874 60.7518 21.8738 58.4547 20.4332C56.1576 18.9927 53.5324 18.1589 50.8251 18.01C48.1177 17.8611 45.4169 18.402 42.9757 19.582C40.5345 20.7621 38.4329 22.5425 36.8678 24.7566C35.3026 26.9707 34.3252 29.5459 34.0271 32.2409C33.7291 34.9359 34.1201 37.6624 35.1636 40.165C36.2071 42.6676 37.8688 44.8643 39.9932 46.5493C40.5936 44.3637 41.8932 42.4347 43.6932 41.0573C45.4932 39.6799 47.6948 38.9297 49.9613 38.9214C52.2279 38.9131 54.4349 39.6471 56.245 41.0113C58.0551 42.3755 59.3687 44.2949 59.9852 46.476C61.8556 44.9793 63.3643 43.0799 64.399 40.9193C65.4337 38.7587 65.9678 36.3925 65.9613 33.9969ZM83.9305 55.6073C84.0006 55.4019 84.0208 55.1827 83.9894 54.9679C83.958 54.7532 83.8759 54.549 83.7499 54.3722C83.624 54.1954 83.4577 54.0512 83.265 53.9515C83.0722 53.8517 82.8585 53.7993 82.6414 53.7985L76.743 53.7776H76.7381C76.5208 53.7776 76.3067 53.8293 76.1134 53.9286C75.9201 54.0279 75.7533 54.1718 75.6267 54.3484C75.5002 54.525 75.4175 54.7292 75.3856 54.9441C75.3537 55.1591 75.3735 55.3785 75.4434 55.5842L76.8588 59.754C76.9506 60.0245 77.1249 60.2594 77.3571 60.4258C77.5893 60.5922 77.8678 60.6817 78.1535 60.6817H81.2199C81.5052 60.6817 81.7834 60.5925 82.0154 60.4265C82.2474 60.2605 82.4217 60.0261 82.5139 59.7561L83.9305 55.6073ZM73.7824 41.0891V43.9198C73.7824 45.434 74.384 46.8863 75.4547 47.957C76.5255 49.0278 77.9777 49.6293 79.492 49.6293C81.0063 49.6293 82.4585 49.0278 83.5293 47.957C84.6 46.8863 85.2016 45.434 85.2016 43.9198V41.0891C85.2016 39.5748 84.6 38.1226 83.5293 37.0518C82.4585 35.9811 81.0063 35.3795 79.492 35.3795C77.9777 35.3795 76.5255 35.9811 75.4547 37.0518C74.384 38.1226 73.7824 39.5748 73.7824 41.0891ZM24.9461 55.6073C25.0162 55.4019 25.0364 55.1827 25.005 54.9679C24.9736 54.7532 24.8915 54.549 24.7656 54.3722C24.6396 54.1954 24.4734 54.0512 24.2806 53.9515C24.0878 53.8517 23.8741 53.7993 23.657 53.7985L17.7586 53.7776H17.7537C17.5364 53.7776 17.3223 53.8293 17.129 53.9286C16.9357 54.0279 16.7689 54.1718 16.6423 54.3484C16.5158 54.525 16.4331 54.7292 16.4012 54.9441C16.3693 55.1591 16.3891 55.3785 16.459 55.5842L17.8744 59.754C17.9662 60.0244 18.1405 60.2594 18.3726 60.4258C18.6048 60.5922 18.8833 60.6817 19.1689 60.6817H22.2354C22.5206 60.6817 22.7988 60.5925 23.0308 60.4265C23.2628 60.2605 23.4372 60.0261 23.5293 59.7561L24.9461 55.6073ZM20.5076 49.6292C22.0214 49.6275 23.4727 49.0254 24.5431 47.955C25.6136 46.8847 26.2157 45.4334 26.2174 43.9196V41.0893C26.2174 39.575 25.6158 38.1227 24.545 37.0519C23.4742 35.9811 22.0219 35.3795 20.5076 35.3795C18.9933 35.3795 17.541 35.9811 16.4702 37.0519C15.3994 38.1227 14.7979 39.575 14.7979 41.0893V43.92C14.7997 45.4337 15.4018 46.8849 16.4722 47.9552C17.5427 49.0255 18.9939 49.6275 20.5076 49.6292ZM55.2758 66.51C55.1538 66.3119 54.9833 66.1482 54.7804 66.0344C54.5775 65.9206 54.3489 65.8604 54.1162 65.8596L46.6051 65.8329H46.6002C46.3672 65.8329 46.138 65.8925 45.9344 66.006C45.7309 66.1195 45.5598 66.2831 45.4373 66.4814C45.3148 66.6796 45.245 66.9059 45.2345 67.1387C45.2241 67.3715 45.2733 67.6031 45.3775 67.8116L47.3307 71.7178C47.4434 71.9434 47.6164 72.1333 47.8304 72.2667C48.0445 72.4 48.2912 72.4716 48.5434 72.4735L52.1482 72.5002H52.1584C52.4123 72.5003 52.6612 72.4296 52.8772 72.2961C53.0931 72.1626 53.2677 71.9717 53.3812 71.7446L55.3344 67.8383C55.4384 67.6302 55.4877 67.399 55.4774 67.1666C55.4672 66.9341 55.3978 66.7081 55.2758 66.51ZM61.69 67.9149H59.6107L54.2166 89.9538L54.2285 90.2122L54.4553 93.6086H69.7742V75.9995C69.7718 73.8561 68.9194 71.8012 67.4038 70.2856C65.8883 68.7699 63.8334 67.9174 61.69 67.9149ZM35.742 65.4911V62.0545C35.7402 60.4493 35.1017 58.9103 33.9666 57.7752C32.8315 56.6401 31.2926 56.0017 29.6873 55.9999H28.3006L23.3615 69.5383L24.093 78.6561H27.4914V75.9999C27.4947 73.5782 28.309 71.2274 29.8044 69.3226C31.2999 67.4179 33.3903 66.0689 35.742 65.4911ZM88.6717 55.9997H87.285L82.3459 69.5383L83.0773 78.6559H94.7264V62.0543C94.7246 60.4491 94.0861 58.9101 92.951 57.775C91.8159 56.6399 90.2769 56.0015 88.6717 55.9997Z" fill="#F6FFFD"/>
<path d="M78.8984 82.5319L79.7906 83.1194L80.6453 82.5425L79.7717 71.6499L78.8984 82.5319Z" fill="#F6FFFD"/>
<path d="M70.3125 55.9995C68.7072 56.0013 67.1682 56.6397 66.0331 57.7748C64.898 58.9099 64.2596 60.4489 64.2578 62.0542V65.4917C66.6095 66.0694 68.6998 67.4182 70.1954 69.3227C71.6909 71.2273 72.5053 73.5779 72.5088 75.9995V78.6558H76.4668L77.198 69.5411L71.7336 55.9995H70.3125ZM51.4981 90.3517L50.8525 76.396L49.8477 76.3886L49.1379 89.3792L49.184 89.5476L49.1277 89.563L48.7871 95.7968L50.3559 96.8227L51.8619 95.8132L51.4994 90.3796C51.499 90.3712 51.4984 90.3616 51.4981 90.3517ZM38.31 67.9147C36.1666 67.9172 34.1117 68.7697 32.5961 70.2854C31.0805 71.801 30.228 73.8559 30.2256 75.9993V93.6085H46.1684L46.3832 89.6741L40.4191 67.9149H38.3098L38.31 67.9147ZM11.3281 55.9995C9.72288 56.0013 8.18389 56.6398 7.04881 57.7749C5.91373 58.91 5.27525 60.449 5.27344 62.0542V78.6558H17.4822L18.2137 69.5411L12.7492 55.9995H11.3281Z" fill="#F6FFFD"/>
<path d="M19.9141 82.5316L20.8064 83.1193L21.6609 82.5424L20.7871 71.6494L19.9141 82.5316Z" fill="#F6FFFD"/>
</svg>
