<svg width="40" height="41" viewBox="0 0 40 41" fill="none" xmlns="http://www.w3.org/2000/svg">
<g id="question (1) 1">
<path id="Vector" d="M15.9375 4.67969C13.612 4.67969 11.3388 5.36927 9.40521 6.66124C7.47165 7.9532 5.96462 9.78952 5.0747 11.938C4.18478 14.0864 3.95194 16.4505 4.40562 18.7313C4.85929 21.0121 5.97912 23.1072 7.62348 24.7515C9.26784 26.3959 11.3629 27.5157 13.6437 27.9694C15.9245 28.4231 18.2886 28.1902 20.437 27.3003C22.5855 26.4104 24.4218 24.9034 25.7138 22.9698C27.0057 21.0362 27.6953 18.763 27.6953 16.4375C27.6917 13.3202 26.4518 10.3317 24.2476 8.12742C22.0433 5.92317 19.0548 4.68326 15.9375 4.67969ZM15.9375 26.9453C13.8593 26.9453 11.8277 26.329 10.0997 25.1744C8.37168 24.0198 7.02486 22.3787 6.22955 20.4587C5.43424 18.5386 5.22615 16.4258 5.6316 14.3875C6.03704 12.3492 7.03782 10.4769 8.50736 9.00735C9.9769 7.53781 11.8492 6.53704 13.8875 6.13159C15.9258 5.72615 18.0386 5.93424 19.9587 6.72955C21.8787 7.52486 23.5198 8.87167 24.6744 10.5997C25.829 12.3277 26.4453 14.3593 26.4453 16.4375C26.4422 19.2234 25.3341 21.8943 23.3642 23.8642C21.3943 25.8341 18.7234 26.9422 15.9375 26.9453Z" fill="#0D493D"/>
<path id="Vector_2" d="M18.8672 9.95312H13.0078C12.8421 9.95312 12.6831 10.019 12.5659 10.1362C12.4487 10.2534 12.3828 10.4124 12.3828 10.5781C12.3828 10.7439 12.4487 10.9029 12.5659 11.0201C12.6831 11.1373 12.8421 11.2031 13.0078 11.2031H18.2422V15.8125H14.9609C14.7952 15.8125 14.6362 15.8783 14.519 15.9956C14.4018 16.1128 14.3359 16.2717 14.3359 16.4375V18.3906C14.3359 18.5564 14.4018 18.7154 14.519 18.8326C14.6362 18.9498 14.7952 19.0156 14.9609 19.0156C15.1267 19.0156 15.2857 18.9498 15.4029 18.8326C15.5201 18.7154 15.5859 18.5564 15.5859 18.3906V17.0625H18.8672C19.0329 17.0625 19.1919 16.9967 19.3091 16.8794C19.4263 16.7622 19.4922 16.6033 19.4922 16.4375V10.5781C19.4922 10.4124 19.4263 10.2534 19.3091 10.1362C19.1919 10.019 19.0329 9.95312 18.8672 9.95312ZM14.9609 20.37C14.7086 20.37 14.4619 20.4448 14.252 20.5851C14.0422 20.7253 13.8787 20.9246 13.7821 21.1577C13.6855 21.3909 13.6603 21.6475 13.7095 21.895C13.7588 22.1425 13.8803 22.3698 14.0588 22.5483C14.2373 22.7267 14.4647 22.8482 14.7122 22.8974C14.9597 22.9466 15.2163 22.9213 15.4494 22.8247C15.6826 22.728 15.8818 22.5644 16.022 22.3546C16.1622 22.1447 16.2369 21.898 16.2369 21.6456C16.2364 21.3074 16.1018 20.9832 15.8626 20.744C15.6234 20.5049 15.2992 20.3704 14.9609 20.37Z" fill="#0D493D"/>
<path id="Vector_3" d="M38.3838 33.5804L31.3129 26.5095C31.0782 26.2754 30.7604 26.144 30.4289 26.144C30.0975 26.144 29.7796 26.2754 29.545 26.5095L28.2191 27.8356L26.7496 26.3659C29.3507 23.5324 30.7383 19.7927 30.6148 15.9484C30.4914 12.1041 28.8668 8.46111 26.0893 5.80037C23.3118 3.13964 19.6024 1.67292 15.7564 1.71461C11.9103 1.75631 8.2336 3.3031 5.51443 6.02342C2.79526 8.74375 1.25003 12.4211 1.20997 16.2672C1.1699 20.1133 2.6382 23.822 5.30011 26.5984C7.96203 29.3748 11.6057 30.9978 15.4501 31.1196C19.2944 31.2414 23.0336 29.8523 25.8659 27.25L27.3353 28.7197L26.0095 30.0456C25.7754 30.2802 25.644 30.598 25.644 30.9294C25.644 31.2608 25.7754 31.5786 26.0095 31.8132L33.0804 38.8838C33.1965 38.9999 33.3343 39.092 33.486 39.1548C33.6377 39.2176 33.8002 39.25 33.9644 39.25C34.1285 39.25 34.2911 39.2176 34.4428 39.1548C34.5944 39.092 34.7322 38.9999 34.8483 38.8838L38.3832 35.3486C38.4994 35.2326 38.5916 35.0948 38.6546 34.9431C38.7175 34.7915 38.75 34.6289 38.75 34.4646C38.7501 34.3004 38.7178 34.1378 38.6549 33.9861C38.5921 33.8344 38.5 33.6965 38.3838 33.5804ZM2.50001 16.4375C2.50001 13.7798 3.2881 11.1818 4.76463 8.97201C6.24116 6.76223 8.33981 5.03991 10.7952 4.02286C13.2506 3.0058 15.9524 2.7397 18.559 3.25819C21.1657 3.77667 23.56 5.05647 25.4393 6.93574C27.3185 8.81501 28.5983 11.2093 29.1168 13.816C29.6353 16.4226 29.3692 19.1244 28.3521 21.5798C27.3351 24.0352 25.6128 26.1338 23.403 27.6104C21.1932 29.0869 18.5952 29.875 15.9375 29.875C12.3749 29.871 8.95933 28.454 6.44018 25.9348C3.92103 23.4157 2.50401 20.0001 2.50001 16.4375ZM33.9646 38L26.8933 30.9291L30.4291 27.3933L37.4994 34.4649L33.9646 38ZM37.5003 34.4642L37.5009 34.463L37.9419 34.9061L37.5003 34.4642Z" fill="#0D493D"/>
</g>
</svg>
