<svg width="100" height="100" viewBox="0 0 100 100" fill="none" xmlns="http://www.w3.org/2000/svg">
<path d="M94.3406 24.7672L80.3016 6.51719C79.8622 5.94972 79.2991 5.48997 78.6552 5.17291C78.0113 4.85585 77.3036 4.68983 76.5859 4.6875H35.9141C35.1965 4.68965 34.4889 4.85542 33.845 5.17221C33.2011 5.48899 32.638 5.94845 32.1984 6.51563L18.1594 24.7688C17.5314 25.5887 17.1899 26.5922 17.1875 27.625V53.125C17.1875 52.7106 17.0229 52.3132 16.7299 52.0201C16.4368 51.7271 16.0394 51.5625 15.625 51.5625H6.25C5.8356 51.5625 5.43817 51.7271 5.14515 52.0201C4.85212 52.3132 4.6875 52.7106 4.6875 53.125V93.75C4.6875 94.1644 4.85212 94.5618 5.14515 94.8549C5.43817 95.1479 5.8356 95.3125 6.25 95.3125H15.625C16.0394 95.3125 16.4368 95.1479 16.7299 94.8549C17.0229 94.5618 17.1875 94.1644 17.1875 93.75V90.625C17.1887 91.8678 17.683 93.0594 18.5618 93.9382C19.4406 94.817 20.6322 95.3113 21.875 95.3125H90.625C91.8678 95.3113 93.0594 94.817 93.9382 93.9382C94.817 93.0594 95.3113 91.8678 95.3125 90.625V27.625C95.3104 26.5916 94.969 25.5876 94.3406 24.7672ZM77.825 8.42344L90.5766 25H68.3438L63.05 7.8125H76.5844C76.8236 7.81329 77.0596 7.86858 77.2742 7.97416C77.4889 8.07975 77.6768 8.23286 77.8234 8.42187L77.825 8.42344ZM46.875 28.125H65.625V43.4781L57.2656 36.3141C56.9826 36.072 56.6224 35.939 56.25 35.939C55.8776 35.939 55.5174 36.072 55.2344 36.3141L46.875 43.4781V28.125ZM59.7828 7.8125L65.0719 25H47.4281L52.7156 7.8125H59.7828ZM34.6734 8.42187C34.8203 8.23265 35.0084 8.07942 35.2233 7.97382C35.4383 7.86823 35.6745 7.81305 35.9141 7.8125H49.4469L44.1594 25H21.9219L34.6734 8.42187ZM37.5 56.25H51.2656C52.4101 56.2498 53.5407 56.5011 54.5773 56.9861C55.614 57.4711 56.5314 58.1779 57.2648 59.0566C57.9981 59.9352 58.5295 60.9643 58.8212 62.071C59.113 63.1777 59.158 64.3349 58.9531 65.4609L56.1125 81.0844C55.7859 82.885 54.8373 84.5138 53.4323 85.6864C52.0272 86.8589 50.255 87.5008 48.425 87.5H17.1875V59.375H18.75C20.8212 59.3725 22.8069 58.5486 24.2715 57.084C25.7361 55.6194 26.56 53.6337 26.5625 51.5625V43.75C26.5625 42.5068 27.0564 41.3145 27.9354 40.4354C28.8145 39.5564 30.0068 39.0625 31.25 39.0625C32.4932 39.0625 33.6855 39.5564 34.5646 40.4354C35.4436 41.3145 35.9375 42.5068 35.9375 43.75V54.6875C35.9375 55.1019 36.1021 55.4993 36.3951 55.7924C36.6882 56.0854 37.0856 56.25 37.5 56.25ZM14.0625 92.1875H7.8125V54.6875H14.0625V92.1875ZM71.875 73.4375C71.875 73.0231 72.0396 72.6257 72.3326 72.3326C72.6257 72.0396 73.0231 71.875 73.4375 71.875H85.9375C86.3519 71.875 86.7493 72.0396 87.0424 72.3326C87.3354 72.6257 87.5 73.0231 87.5 73.4375C87.5 73.8519 87.3354 74.2493 87.0424 74.5424C86.7493 74.8354 86.3519 75 85.9375 75H73.4375C73.0231 75 72.6257 74.8354 72.3326 74.5424C72.0396 74.2493 71.875 73.8519 71.875 73.4375ZM71.875 79.6875C71.875 79.2731 72.0396 78.8757 72.3326 78.5826C72.6257 78.2896 73.0231 78.125 73.4375 78.125H82.8125C83.2269 78.125 83.6243 78.2896 83.9174 78.5826C84.2104 78.8757 84.375 79.2731 84.375 79.6875C84.375 80.1019 84.2104 80.4993 83.9174 80.7924C83.6243 81.0854 83.2269 81.25 82.8125 81.25H73.4375C73.0231 81.25 72.6257 81.0854 72.3326 80.7924C72.0396 80.4993 71.875 80.1019 71.875 79.6875ZM87.5 85.9375C87.5 86.3519 87.3354 86.7493 87.0424 87.0424C86.7493 87.3354 86.3519 87.5 85.9375 87.5H73.4375C73.0231 87.5 72.6257 87.3354 72.3326 87.0424C72.0396 86.7493 71.875 86.3519 71.875 85.9375C71.875 85.5231 72.0396 85.1257 72.3326 84.8326C72.6257 84.5396 73.0231 84.375 73.4375 84.375H85.9375C86.3519 84.375 86.7493 84.5396 87.0424 84.8326C87.3354 85.1257 87.5 85.5231 87.5 85.9375Z" fill="#F6FFFD"/>
</svg>
